<?xml version="1.0" standalone="no"?>
<!DOCTYPE svg PUBLIC "-//W3C//DTD SVG 20010904//EN"
 "http://www.w3.org/TR/2001/REC-SVG-20010904/DTD/svg10.dtd">
<svg version="1.0" xmlns="http://www.w3.org/2000/svg"
 width="700.000000pt" height="700.000000pt" viewBox="0 0 700.000000 700.000000"
 preserveAspectRatio="xMidYMid meet">
<metadata>
Created by potrace 1.11, written by Peter Selinger 2001-2013
</metadata>
<g transform="translate(0.000000,700.000000) scale(0.100000,-0.100000)"
fill="#000000" stroke="none">
<path d="M3240 6874 c-19 -2 -78 -9 -130 -14 -829 -93 -1614 -508 -2169 -1148
-379 -437 -648 -988 -760 -1558 -47 -239 -55 -336 -55 -654 0 -318 8 -418 55
-654 233 -1181 1080 -2151 2224 -2546 569 -196 1215 -233 1815 -104 266 57
512 144 775 273 484 239 885 571 1211 1005 130 172 223 324 325 531 168 342
262 645 319 1035 27 183 37 538 21 731 -54 647 -283 1249 -671 1764 -195 259
-407 470 -665 665 -471 355 -998 571 -1600 656 -104 14 -611 28 -695 18z
m-1275 -1525 c479 -39 1012 -201 1460 -445 674 -367 1201 -916 1548 -1610 177
-355 310 -787 362 -1183 14 -108 39 -460 33 -466 -4 -4 -692 -23 -697 -19 -2
2 -7 70 -12 153 -4 83 -13 188 -19 233 -100 773 -504 1497 -1100 1977 -300
242 -705 451 -1074 557 -223 63 -524 114 -681 114 -33 0 -83 3 -111 6 l-51 6
3 62 c2 33 7 190 10 349 l6 287 97 -5 c53 -3 155 -10 226 -16z m34 -1294 c724
-120 1351 -534 1716 -1135 213 -350 345 -769 362 -1151 l6 -127 -259 -6 c-142
-3 -299 -7 -349 -9 l-90 -2 -2 55 c-25 582 -335 1131 -803 1421 -278 172 -583
268 -900 282 l-55 2 2 85 c2 47 6 204 9 349 l7 264 131 -6 c72 -4 173 -14 225
-22z m232 -1510 c138 -39 259 -153 306 -288 61 -174 15 -365 -116 -490 -190
-181 -478 -174 -658 15 -86 91 -125 192 -125 318 0 133 47 243 142 334 124
118 285 158 451 111z"/>
</g>
</svg>
